<svg width="87" height="86" viewBox="0 0 87 86" fill="none" xmlns="http://www.w3.org/2000/svg">
<circle cx="43.5" cy="42.999" r="43" fill="#D9DBF9"/>
<path d="M62 59.749H27V56.249H28.75V29.999C28.75 29.5349 28.9344 29.0898 29.2626 28.7616C29.5908 28.4334 30.0359 28.249 30.5 28.249H55C55.4641 28.249 55.9093 28.4334 56.2374 28.7616C56.5656 29.0898 56.75 29.5349 56.75 29.999V38.749H60.25V56.249H62V59.749ZM53.25 56.249H56.75V42.249H46.25V56.249H49.75V45.749H53.25V56.249ZM53.25 38.749V31.749H32.25V56.249H42.75V38.749H53.25ZM35.75 42.249H39.25V45.749H35.75V42.249ZM35.75 49.249H39.25V52.749H35.75V49.249ZM35.75 35.249H39.25V38.749H35.75V35.249Z" fill="#4D3FED"/>
</svg>
