<svg width="77" height="85" viewBox="0 0 77 85" fill="none" xmlns="http://www.w3.org/2000/svg">
<path d="M30.6235 2.74249C35.4975 -0.0669136 41.5025 -0.0669156 46.3765 2.74249L69.1235 15.8541C73.9975 18.6635 77 23.8555 77 29.4743V55.6975C77 61.3163 73.9975 66.5083 69.1235 69.3177L46.3765 82.4293C41.5025 85.2387 35.4975 85.2387 30.6235 82.4293L7.87648 69.3177C3.0025 66.5083 0 61.3163 0 55.6975V29.4743C0 23.8555 3.0025 18.6635 7.87648 15.8541L30.6235 2.74249Z" fill="#EEF5F7"/>
<path d="M27.3996 63.9343H56.1115C58.2738 63.9343 60.0267 62.1814 60.0267 60.019V30.6546L48.281 18.9089H27.3996C25.2373 18.9089 23.4844 20.6618 23.4844 22.8241V60.019C23.4844 62.1814 25.2373 63.9343 27.3996 63.9343Z" fill="url(#paint0_linear_3_142)" fill-opacity="0.3"/>
<path d="M52.1965 30.6546H60.027L48.2812 18.9089V26.7394C48.2812 28.9017 50.0342 30.6546 52.1965 30.6546Z" fill="url(#paint1_linear_3_142)" fill-opacity="0.48"/>
<rect x="27.3904" y="30.6536" width="22.1864" height="3.91525" fill="#4D3FED" fill-opacity="0.1"/>
<rect x="27.3904" y="37.1793" width="27.4068" height="3.91525" fill="#4D3FED" fill-opacity="0.1"/>
<rect x="27.3904" y="43.705" width="27.4068" height="3.91525" fill="#4D3FED" fill-opacity="0.1"/>
<rect x="27.3904" y="50.2306" width="27.4068" height="3.91525" fill="#4D3FED" fill-opacity="0.1"/>
<path fill-rule="evenodd" clip-rule="evenodd" d="M20.6601 44.4949L16.9688 48.1862L27.2103 58.4278L30.9017 54.7364L30.9003 54.7351L44.7419 40.8935L41.0506 37.2022L27.209 51.0438L20.6601 44.4949Z" fill="url(#paint2_linear_3_142)"/>
<defs>
<linearGradient id="paint0_linear_3_142" x1="23.4844" y1="18.8697" x2="62.2147" y2="58.7384" gradientUnits="userSpaceOnUse">
<stop offset="0.0190801" stop-color="#4D3FED" stop-opacity="0"/>
<stop offset="1" stop-color="#4D3FED"/>
</linearGradient>
<linearGradient id="paint1_linear_3_142" x1="48.2813" y1="18.8979" x2="59.0364" y2="31.5508" gradientUnits="userSpaceOnUse">
<stop offset="0.0190801" stop-color="#4D3FED" stop-opacity="0"/>
<stop offset="1" stop-color="#4D3FED"/>
</linearGradient>
<linearGradient id="paint2_linear_3_142" x1="12.0747" y1="44.3563" x2="39.9" y2="74.9116" gradientUnits="userSpaceOnUse">
<stop offset="0.0190801" stop-color="#4D3FED" stop-opacity="0"/>
<stop offset="1" stop-color="#4D3FED"/>
</linearGradient>
</defs>
</svg>
