<svg width="77" height="85" viewBox="0 0 77 85" fill="none" xmlns="http://www.w3.org/2000/svg">
<path d="M30.6235 2.64343C35.4975 -0.165974 41.5025 -0.165976 46.3765 2.64343L69.1235 15.755C73.9975 18.5644 77 23.7564 77 29.3753V55.5984C77 61.2173 73.9975 66.4093 69.1235 69.2187L46.3765 82.3303C41.5025 85.1397 35.4975 85.1397 30.6235 82.3303L7.87648 69.2187C3.0025 66.4093 0 61.2173 0 55.5985V29.3753C0 23.7564 3.0025 18.5644 7.87648 15.755L30.6235 2.64343Z" fill="#EEF5F7"/>
<rect x="11.1007" y="31.9683" width="17.5643" height="21.9553" rx="2.77331" fill="url(#paint0_linear_3_261)" fill-opacity="0.3"/>
<rect x="49.9138" y="31.9681" width="17.5643" height="21.9553" rx="2.77331" fill="url(#paint1_linear_3_261)" fill-opacity="0.3"/>
<g filter="url(#filter0_b_3_261)">
<rect x="24.0308" y="21.1053" width="30.5064" height="38.1329" rx="4.81679" fill="url(#paint2_linear_3_261)" fill-opacity="0.5"/>
</g>
<path d="M46.9168 45.0765C46.9168 45.2925 46.8276 45.4996 46.6686 45.6523C46.5097 45.805 46.2942 45.8908 46.0694 45.8908H32.511C32.2863 45.8908 32.0708 45.805 31.9118 45.6523C31.7529 45.4996 31.6637 45.2925 31.6637 45.0765V36.5187C31.6636 36.3946 31.693 36.2721 31.7497 36.1607C31.8064 36.0492 31.8888 35.9516 31.9907 35.8754L38.7699 30.8091C38.9187 30.6979 39.1018 30.6376 39.2902 30.6376C39.4787 30.6376 39.6618 30.6979 39.8105 30.8091L46.5897 35.8754C46.6917 35.9516 46.7741 36.0492 46.8308 36.1607C46.8875 36.2721 46.9169 36.3946 46.9168 36.5187V45.0765V45.0765Z" fill="url(#paint3_linear_3_261)" fill-opacity="0.6"/>
<defs>
<filter id="filter0_b_3_261" x="20.3331" y="17.4076" width="37.9018" height="45.5284" filterUnits="userSpaceOnUse" color-interpolation-filters="sRGB">
<feFlood flood-opacity="0" result="BackgroundImageFix"/>
<feGaussianBlur in="BackgroundImage" stdDeviation="1.84887"/>
<feComposite in2="SourceAlpha" operator="in" result="effect1_backgroundBlur_3_261"/>
<feBlend mode="normal" in="SourceGraphic" in2="effect1_backgroundBlur_3_261" result="shape"/>
</filter>
<linearGradient id="paint0_linear_3_261" x1="11.1007" y1="31.9477" x2="31.433" y2="51.0836" gradientUnits="userSpaceOnUse">
<stop offset="0.0190801" stop-color="#4D3FED" stop-opacity="0"/>
<stop offset="1" stop-color="#4D3FED"/>
</linearGradient>
<linearGradient id="paint1_linear_3_261" x1="44.8295" y1="28.2704" x2="71.0911" y2="58.1336" gradientUnits="userSpaceOnUse">
<stop offset="0.0719512" stop-color="#4D3FED" stop-opacity="0"/>
<stop offset="1" stop-color="#4D3FED"/>
</linearGradient>
<linearGradient id="paint2_linear_3_261" x1="24.0308" y1="21.0696" x2="59.3448" y2="54.3057" gradientUnits="userSpaceOnUse">
<stop offset="0.0190801" stop-color="#4D3FED" stop-opacity="0"/>
<stop offset="1" stop-color="#4D3FED"/>
</linearGradient>
<linearGradient id="paint3_linear_3_261" x1="31.2007" y1="24.1411" x2="27.7351" y2="67.433" gradientUnits="userSpaceOnUse">
<stop offset="0.0190801" stop-color="#4D3FED" stop-opacity="0"/>
<stop offset="1" stop-color="#4D3FED"/>
</linearGradient>
</defs>
</svg>
