<svg width="84" height="91" viewBox="0 0 84 91" fill="none" xmlns="http://www.w3.org/2000/svg">
<path d="M33.1267 2.27929C38.3991 -0.759762 44.895 -0.759764 50.1674 2.27929L74.7738 16.4627C80.0462 19.5017 83.2941 25.1181 83.2941 31.1962V59.5629C83.2941 65.641 80.0462 71.2574 74.7738 74.2965L50.1674 88.4799C44.895 91.5189 38.3991 91.5189 33.1267 88.4799L8.52032 74.2965C3.24793 71.2575 0 65.6411 0 59.5629V31.1962C0 25.1181 3.24793 19.5017 8.52032 16.4627L33.1267 2.27929Z" fill="#EEF5F7"/>
<path opacity="0.6" d="M73.4116 62.661C73.4116 63.3267 73.1472 63.965 72.6765 64.4357C72.2058 64.9064 71.5674 65.1708 70.9018 65.1708H30.7449C30.0793 65.1708 29.4409 64.9064 28.9702 64.4357C28.4995 63.965 28.2351 63.3267 28.2351 62.661V36.283C28.2348 35.9005 28.322 35.523 28.4899 35.1794C28.6578 34.8358 28.902 34.5351 29.2039 34.3002L49.2823 18.6842C49.7229 18.3415 50.2652 18.1554 50.8233 18.1554C51.3815 18.1554 51.9238 18.3415 52.3644 18.6842L72.4428 34.3002C72.7447 34.5351 72.9889 34.8358 73.1568 35.1794C73.3247 35.523 73.4118 35.9005 73.4116 36.283V62.661V62.661Z" fill="url(#paint0_linear_0_23)"/>
<path d="M46.591 62.7739C46.591 63.2939 46.3844 63.7927 46.0167 64.1604C45.649 64.5281 45.1502 64.7347 44.6302 64.7347H13.2577C12.7376 64.7347 12.2389 64.5281 11.8712 64.1604C11.5035 63.7927 11.2969 63.2939 11.2969 62.7739V42.166C11.2967 41.8673 11.3648 41.5724 11.4959 41.3039C11.6271 41.0354 11.8179 40.8005 12.0537 40.617L27.74 28.417C28.0842 28.1493 28.5079 28.0039 28.9439 28.0039C29.38 28.0039 29.8037 28.1493 30.1479 28.417L45.8341 40.617C46.07 40.8005 46.2608 41.0354 46.3919 41.3039C46.5231 41.5724 46.5912 41.8673 46.591 42.166V62.7739Z" fill="url(#paint1_linear_0_23)" fill-opacity="0.3"/>
<defs>
<linearGradient id="paint0_linear_0_23" x1="28.2351" y1="18.1113" x2="71.5292" y2="67.0525" gradientUnits="userSpaceOnUse">
<stop offset="0.0190801" stop-color="#4D3FED" stop-opacity="0"/>
<stop offset="1" stop-color="#4D3FED"/>
</linearGradient>
<linearGradient id="paint1_linear_0_23" x1="11.2969" y1="27.9694" x2="45.1204" y2="66.2047" gradientUnits="userSpaceOnUse">
<stop offset="0.0190801" stop-color="#4D3FED" stop-opacity="0"/>
<stop offset="1" stop-color="#4D3FED"/>
</linearGradient>
</defs>
</svg>
