<svg width="86" height="86" viewBox="0 0 86 86" fill="none" xmlns="http://www.w3.org/2000/svg">
<circle cx="43" cy="42.999" r="43" fill="#D9DBF9"/>
<path d="M30.1654 37.4993C30.6516 37.4993 31.1179 37.6925 31.4617 38.0363C31.8055 38.3801 31.9987 38.8465 31.9987 39.3327C34.8791 39.3284 37.6765 40.2975 39.937 42.0827H43.9154C46.3592 42.0827 48.5537 43.146 50.0644 44.8327H55.832C57.565 44.8322 59.2626 45.323 60.728 46.2481C62.1934 47.1732 63.3665 48.4948 64.1114 50.0595C59.7755 55.7813 52.7557 59.4993 44.832 59.4993C39.717 59.4993 35.3904 58.3938 31.8887 56.4597C31.7604 56.8136 31.5261 57.1194 31.2177 57.3353C30.9093 57.5512 30.5418 57.6667 30.1654 57.666H24.6654C24.1791 57.666 23.7128 57.4729 23.369 57.129C23.0252 56.7852 22.832 56.3189 22.832 55.8327V39.3327C22.832 38.8465 23.0252 38.3801 23.369 38.0363C23.7128 37.6925 24.1791 37.4993 24.6654 37.4993H30.1654ZM32.0005 42.9993L31.9987 52.2063L32.0812 52.265C35.372 54.575 39.6584 55.8327 44.832 55.8327C50.3394 55.8327 55.4635 53.7133 59.1962 50.0943L59.44 49.8505L59.22 49.6672C58.3543 48.9892 57.3049 48.5868 56.2079 48.5122L55.832 48.4993H51.9619C52.0939 49.0897 52.1654 49.702 52.1654 50.3327V52.166H35.6654V48.4993L48.1137 48.4975L48.0514 48.3545C47.7 47.6203 47.1596 46.9929 46.4855 46.5367C45.8115 46.0805 45.0282 45.8119 44.216 45.7585L43.9154 45.7493H38.5437C37.6918 44.878 36.6742 44.1858 35.5508 43.7136C34.4274 43.2413 33.221 42.9985 32.0024 42.9993H32.0005ZM28.332 41.166H26.4987V53.9993H28.332V41.166ZM53.9987 30.166C55.4574 30.166 56.8563 30.7455 57.8878 31.7769C58.9192 32.8084 59.4987 34.2073 59.4987 35.666C59.4987 37.1247 58.9192 38.5237 57.8878 39.5551C56.8563 40.5866 55.4574 41.166 53.9987 41.166C52.54 41.166 51.1411 40.5866 50.1096 39.5551C49.0782 38.5237 48.4987 37.1247 48.4987 35.666C48.4987 34.2073 49.0782 32.8084 50.1096 31.7769C51.1411 30.7455 52.54 30.166 53.9987 30.166ZM53.9987 33.8327C53.5125 33.8327 53.0462 34.0258 52.7023 34.3697C52.3585 34.7135 52.1654 35.1798 52.1654 35.666C52.1654 36.1522 52.3585 36.6186 52.7023 36.9624C53.0462 37.3062 53.5125 37.4993 53.9987 37.4993C54.4849 37.4993 54.9512 37.3062 55.2951 36.9624C55.6389 36.6186 55.832 36.1522 55.832 35.666C55.832 35.1798 55.6389 34.7135 55.2951 34.3697C54.9512 34.0258 54.4849 33.8327 53.9987 33.8327ZM41.1654 24.666C42.6241 24.666 44.023 25.2455 45.0545 26.2769C46.0859 27.3084 46.6654 28.7073 46.6654 30.166C46.6654 31.6247 46.0859 33.0237 45.0545 34.0551C44.023 35.0866 42.6241 35.666 41.1654 35.666C39.7067 35.666 38.3077 35.0866 37.2763 34.0551C36.2448 33.0237 35.6654 31.6247 35.6654 30.166C35.6654 28.7073 36.2448 27.3084 37.2763 26.2769C38.3077 25.2455 39.7067 24.666 41.1654 24.666ZM41.1654 28.3327C40.6791 28.3327 40.2128 28.5258 39.869 28.8697C39.5252 29.2135 39.332 29.6798 39.332 30.166C39.332 30.6522 39.5252 31.1186 39.869 31.4624C40.2128 31.8062 40.6791 31.9993 41.1654 31.9993C41.6516 31.9993 42.1179 31.8062 42.4617 31.4624C42.8055 31.1186 42.9987 30.6522 42.9987 30.166C42.9987 29.6798 42.8055 29.2135 42.4617 28.8697C42.1179 28.5258 41.6516 28.3327 41.1654 28.3327Z" fill="#4D3FED"/>
</svg>
