<svg width="86" height="86" viewBox="0 0 86 86" fill="none" xmlns="http://www.w3.org/2000/svg">
<circle cx="43" cy="42.999" r="43" fill="#D9DBF9"/>
<path d="M43.0007 26.3328C52.2057 26.3328 59.6673 33.7944 59.6673 42.9994C59.6673 46.9994 58.2573 50.6728 55.9073 53.5461L55.964 53.6061L53.6073 55.9628L53.5473 55.9061C50.5734 58.3431 46.8456 59.6721 43.0007 59.6661C33.7957 59.6661 26.334 52.2044 26.334 42.9994C26.334 33.7944 33.7957 26.3328 43.0007 26.3328ZM29.6673 42.9994C29.6673 45.4943 30.3672 47.9391 31.6876 50.056C33.008 52.1729 34.8958 53.8768 37.1364 54.9741C39.377 56.0714 41.8805 56.518 44.3623 56.2632C46.8442 56.0084 49.2047 55.0624 51.1757 53.5328L47.2173 49.5728C46.927 49.6351 46.6309 49.6664 46.334 49.6661H44.6673V52.9994H41.334V49.6661H37.1673V46.3328H46.334C46.5422 46.3331 46.7431 46.2556 46.897 46.1152C47.0508 45.975 47.1466 45.7821 47.1654 45.5747C47.1843 45.3673 47.1247 45.1604 46.9986 44.9947C46.8725 44.829 46.6889 44.7165 46.484 44.6794L46.334 44.6661H39.6673C38.9359 44.6661 38.2174 44.4735 37.584 44.1078C36.9506 43.7421 36.4246 43.2161 36.059 42.5827C35.6933 41.9493 35.5008 41.2308 35.5008 40.4994C35.5008 39.768 35.6933 39.0495 36.059 38.4161L32.4657 34.8228C30.647 37.1599 29.662 40.038 29.6673 42.9994ZM43.0007 29.6661C39.9207 29.6661 37.084 30.7111 34.8257 32.4661L38.784 36.4244C39.0743 36.3626 39.3705 36.3319 39.6673 36.3328H41.334V32.9994H44.6673V36.3328H48.834V39.6661H39.6673C39.4591 39.6657 39.2582 39.7433 39.1043 39.8836C38.9505 40.0239 38.8547 40.2167 38.8359 40.4241C38.817 40.6315 38.8766 40.8384 39.0027 41.0042C39.1288 41.1699 39.3124 41.2823 39.5173 41.3194L39.6673 41.3328H46.334C47.0654 41.3328 47.7839 41.5253 48.4173 41.891C49.0507 42.2567 49.5767 42.7827 49.9423 43.4161C50.308 44.0496 50.5005 44.7681 50.5005 45.4995C50.5005 46.2309 50.308 46.9494 49.9423 47.5828L53.5356 51.1744C55.0654 49.2034 56.0114 46.8427 56.2662 44.3607C56.5209 41.8787 56.0741 39.3751 54.9766 37.1344C53.8791 34.8937 52.1749 33.0059 50.0578 31.6857C47.9407 30.3655 45.4957 29.6658 43.0007 29.6661Z" fill="#4D3FED"/>
</svg>
