<svg width="87" height="86" viewBox="0 0 87 86" fill="none" xmlns="http://www.w3.org/2000/svg">
<circle cx="43.5" cy="43" r="43" fill="#D9DBF9"/>
<path d="M41.5767 25.6738L58.8999 28.1501L61.3744 45.4751L45.2884 61.5611C44.9603 61.8892 44.5152 62.0735 44.0512 62.0735C43.5872 62.0735 43.1421 61.8892 42.8139 61.5611L25.4889 44.2361C25.1609 43.9079 24.9766 43.4629 24.9766 42.9988C24.9766 42.5348 25.1609 42.0898 25.4889 41.7616L41.5767 25.6738ZM42.8139 29.3873L29.2007 42.9988L44.0512 57.8476L57.6627 44.2361L55.8077 31.2423L42.8139 29.3873ZM46.5239 40.5243C45.8674 39.8676 45.4987 38.9769 45.4989 38.0483C45.4989 37.5885 45.5896 37.1333 45.7656 36.7085C45.9417 36.2837 46.1996 35.8978 46.5248 35.5727C46.85 35.2476 47.236 34.9898 47.6609 34.8139C48.0857 34.638 48.541 34.5475 49.0008 34.5476C49.9294 34.5478 50.8199 34.9168 51.4764 35.5736C52.1329 36.2303 52.5017 37.121 52.5015 38.0496C52.5014 38.9782 52.1323 39.8687 51.4756 40.5252C50.8188 41.1817 49.9282 41.5504 48.9996 41.5503C48.071 41.5501 47.1805 41.1811 46.5239 40.5243Z" fill="#4D3FED"/>
</svg>
