<svg width="86" height="86" viewBox="0 0 86 86" fill="none" xmlns="http://www.w3.org/2000/svg">
<circle cx="43" cy="42.999" r="43" fill="#D9DBF9"/>
<path d="M46.75 46.1585V49.5548C45.2792 49.0348 43.7052 48.8753 42.16 49.0897C40.6149 49.3041 39.1437 49.8861 37.8701 50.7869C36.5965 51.6876 35.5576 52.8808 34.8406 54.2663C34.1237 55.6518 33.7497 57.1891 33.75 58.749L30.5 58.7474C30.4995 56.7631 30.9532 54.805 31.8265 53.0232C32.6997 51.2413 33.9693 49.683 35.5379 48.4677C37.1064 47.2524 38.9324 46.4122 40.8759 46.0117C42.8193 45.6112 44.8287 45.6608 46.75 46.1569V46.1585ZM43.5 44.124C38.1131 44.124 33.75 39.7609 33.75 34.374C33.75 28.9871 38.1131 24.624 43.5 24.624C48.8869 24.624 53.25 28.9871 53.25 34.374C53.25 39.7609 48.8869 44.124 43.5 44.124ZM43.5 40.874C47.0913 40.874 50 37.9653 50 34.374C50 30.7828 47.0913 27.874 43.5 27.874C39.9088 27.874 37 30.7828 37 34.374C37 37.9653 39.9088 40.874 43.5 40.874ZM52.9136 55.3593L58.658 49.6149L60.9574 51.9126L52.9136 59.9564L47.1676 54.2104L49.467 51.9126L52.912 55.3593H52.9136Z" fill="#4D3FED"/>
</svg>
