<svg width="375" height="247" viewBox="0 0 375 247" fill="none" xmlns="http://www.w3.org/2000/svg">
<path d="M183.31 37.8282H40.2363C45.9437 34.3402 51.5033 37.4448 54.8683 33.7916C57.5603 30.869 62.0365 29.4803 65.2914 29.8234C65.2914 26.9257 69.834 28.7354 69.0759 27.2541C67.4085 23.996 70.4497 21.3514 73.7869 22.7565C73.7869 20.1196 76.3293 19.654 77.5257 19.7822C74.4166 17.2201 75.9152 13.0577 80.1429 13.4197C79.2912 12.319 80.1429 10.7358 81.8394 10.7358C81.2085 10.1754 81.1713 3.22454 88.2534 1.44957C92.7773 0.315783 98.1724 3.55761 99.2939 5.85253C100.892 3.48293 103.815 3.58441 105.077 3.93135C108.391 -3.33512 114.435 1.18056 114.435 3.93135C116.757 4.2227 117.007 5.85253 116.328 6.65346C119.693 5.77287 123.898 7.21341 126.317 10.3355C128.735 13.4576 131.259 12.0166 133.046 12.6571C134.476 13.1694 134.834 13.9913 134.834 14.3382C140.133 14.6584 142.229 16.3929 142.615 17.2201C142.362 16.3234 143.912 15.4055 144.718 15.0587C143.075 13.4955 145.975 11.97 147.241 13.0577C151.094 10.7358 155.152 13.4197 155.152 15.0587C158.024 15.0587 158.648 17.4837 157.212 18.3868C163.26 18.3868 163.33 22.7565 161.436 25.2257C165.655 25.9956 170.122 27.866 168.796 33.7916C172.195 31.6006 174.63 33.7916 174.919 35.3067C175.979 35.4411 181.747 36.3538 183.31 37.8282Z" fill="#EEF5F7"/>
<path d="M155.925 27.3937C156.636 27.4741 160.509 28.0196 161.558 28.9008H139.711H131.47H128.238C128.669 27.3937 125.168 26.8946 123.66 28.9008C124.683 26.4882 122.529 25.1322 120.805 26.4882C121.129 22.1548 115.969 23.0882 117.143 25.8712C117.785 27.3937 115.772 28.9008 114.773 28.9008C116.589 25.8712 113.157 24.1164 111.595 25.8712C113.157 22.1548 109.387 20.3235 107.771 22.1548C109.035 19.0554 106.263 16.5531 105.832 19.5694C105.832 19.5694 104.378 27.3633 104.49 26.7063C104.841 24.6496 104.435 23.3108 103.659 22.5808C101.774 20.805 97.701 22.6311 97.0103 26.4882C95.8184 25.4219 94.3901 25.1565 93.1789 25.4775C90.6904 26.1372 88.4514 28.9008 85.877 28.9008C85.2187 26.4882 82.6067 25.8257 81.5199 28.9008C81.2065 27.4529 79.3258 28.1738 79.7019 28.9008H65.5039C66.1106 27.8922 67.6882 28.0304 68.7361 27.8922C71.3507 27.5472 73.7144 28.047 75.3272 26.4882C77.1345 24.7414 80.1397 23.9114 82.3248 24.1164C82.3248 22.8632 83.7704 22.3847 84.8656 22.5808C85.6279 22.7172 85.0403 20.069 88.0284 19.8926C87.7306 18.1149 89.5338 17.5381 90.5385 18.1149C89.0186 16.5836 90.3066 14.3121 92.2956 14.3121C92.444 13.4804 94.5627 11.3558 97.7406 12.7839C97.372 8.11753 102.634 7.01356 105.153 9.78931C106.226 8.37303 108.188 8.43368 109.035 8.64104C111.26 4.29796 115.318 6.99693 115.318 8.64104C116.964 8.64104 117.197 9.78931 116.589 10.268C118.848 9.7417 121.671 10.6027 123.295 12.4687C125.655 11.5965 129.22 16.6993 125.655 19.8926C130.783 18.8411 133.35 19.0554 135.648 19.0554C135.648 17.5436 137.031 17.3931 137.784 17.9953C140.371 16.6076 142.653 18.0759 142.653 19.0554C144.581 19.0554 145.001 20.5049 144.037 21.0446C148.097 21.0446 148.144 23.6563 146.872 25.1322C149.705 25.5923 152.704 22.9465 151.814 26.4882C154.096 25.1787 155.73 26.4882 155.925 27.3937Z" fill="url(#paint0_linear_1630_6150)"/>
<path d="M440.302 84.0584H140.539C162.775 83.0746 161.712 79.7415 161.712 79.7415C161.712 74.833 168.225 76.2954 173.675 78.0226C180.588 80.2134 189.892 73.2381 199.197 79.7415C200.504 80.6553 206.242 82.6758 209.565 78.6881C212.223 75.4979 219.18 76.9152 222.326 78.0226C221.307 77.4469 221.373 74.1895 223.522 73.2381C227.354 71.5418 230.345 74.2572 231.63 76.2954C232.364 71.9802 237.887 71.0412 242.796 73.2381C243.328 70.7923 245.942 70.0036 247.183 69.915C245.366 67.5665 242.823 62.0189 247.183 58.6164C251.543 55.2138 256.797 59.2367 258.88 61.6734C259.305 57.9513 263.399 58.0845 265.393 58.6164C264.729 54.3632 265.393 46.9786 272.438 45.7227C276.991 44.911 282.895 48.071 284.8 50.508C286.395 47.4244 289.098 48.2478 290.25 49.045C288.968 41.1768 293.145 27.7771 305.67 27.7771C324.939 27.7771 325.032 45.6779 321.222 54.3624C323.987 55.7449 324.057 58.4834 323.747 59.6798C328.958 55.8516 332.919 59.4138 334.248 61.6734C340.234 52.0501 347.099 57.875 344.484 62.8696C349.375 59.573 351.484 62.5597 351.927 64.4651C354.719 63.9334 359.903 63.5338 362.561 69.3825C364.688 74.0614 370.065 70.1624 370.67 78.0226C375.03 77.2782 376.563 79.8392 376.784 81.2128C376.332 74.3404 382.22 73.5807 384.095 74.833C385.954 70.2257 389.816 71.7449 392.47 74.833C404.699 67.4528 406.958 75.0303 406.56 79.7415C409.092 76.3377 414.605 76.5978 416.321 79.7415C420.158 76.2881 428.751 84.0584 440.302 84.0584Z" fill="#EEF5F7"/>
<path d="M362.828 75.9974C366.192 74.9736 369.556 76.0706 368.679 79.142C368.087 81.2136 370.399 82.8415 372.205 83.6666C372.425 83.7345 372.644 83.8228 372.862 83.9413C372.656 83.8632 372.434 83.7714 372.205 83.6666C370.369 83.0992 368.487 83.9526 366.888 80.4258C368.088 79.3482 366.888 77.9903 366.277 78.1676C366.486 75.7528 363.275 76.9536 362.636 77.8484C362.271 76.1662 360.265 75.9974 360.001 76.9566C359.353 75.9974 356.758 76.227 356.961 78.5439C355.988 76.4297 353.009 76.7742 352.21 78.1676C353.713 73.5234 346.175 73.9841 347.317 78.7792C345.623 75.8811 343.286 76.5366 342.33 77.2266C340.44 74.3286 338.193 75.1996 337.306 75.9974C333.078 73.9259 331.241 76.2067 330.85 77.6061C327.2 76.4409 324.978 79.2155 324.929 81.8786C324.938 82.0266 324.942 82.1792 324.942 82.3366C324.931 82.1848 324.926 82.0319 324.929 81.8786C324.671 77.5199 320.701 77.1423 318.786 77.6061C317.348 75.2168 314.886 76.5518 314.586 77.6061C314.411 73.6155 310.745 71.4432 306.591 74.5346C307.262 72.2503 310.224 70.1854 313.465 71.244C315.506 71.9107 316.173 74.4055 315.947 75.7156C316.594 73.5408 319.595 73.0678 320.819 74.7141C322.501 73.0934 325.454 74.3754 324.867 77.113C325.227 76.2878 326.233 75.1913 327.579 74.3335C327.579 72.0426 331.054 70.9525 332.479 72.9989C335.351 73.2899 336.842 74.6323 337.306 75.9974C341.108 71.8438 343.814 72.999 344.692 74.0959C345.92 70.5271 349.299 70.7076 350.835 71.244C351.249 70.0251 352.809 67.8507 355.734 68.9038C358.66 69.9569 358.416 72.4627 357.928 73.5841C361.439 73.116 362.657 74.998 362.828 75.9974Z" fill="url(#paint1_linear_1630_6150)"/>
<path d="M308.638 58.7385C310.218 61.2117 308.232 63.1994 306.591 63.1994C308.194 63.5923 308.049 65.7095 306.917 66.2526C308.638 65.7457 310.224 66.6252 310.224 68.2109C308.339 66.8696 305.366 68.2109 305.736 70.2989C304.278 70.0597 303.336 71.4735 303.885 72.9989C302.429 72.0173 301.845 74.0124 300.811 73.6155C302.221 72.0802 300.637 70.0944 298.999 70.9525C297.578 69.3161 299.349 67.1961 300.811 67.7717C299.859 64.6735 296.451 65.2371 295.707 66.6252C296.236 63.5923 293.499 62.8219 292.083 63.5923C291.54 60.6482 293.284 59.006 295.189 59.006C293.029 55.6513 290.172 56.7206 289.013 57.6746C288.48 56.1655 287.139 56.3307 286.535 56.602C285.18 54.6638 286.535 51.8644 288.4 51.8644C288.107 50.4331 289.013 49.1335 290.251 49.1335C292.042 49.0819 292.432 50.9326 292.403 51.8644C295.791 50.4666 297.461 52.8731 297.993 54.5777C296.975 50.327 300.19 49.4299 301.983 49.5243C301.228 48.25 302.248 47.2839 303.227 47.6229C304.287 46.8009 304.046 44.9169 302.569 44.9169C304.499 43.3373 306.591 44.4122 306.591 45.6484C309.788 43.1244 312.467 46.9851 311.49 48.8659C310.254 51.2467 308.205 51.1215 307.322 50.5481C307.498 52.0107 306.38 53.0344 304.836 53.0344C310.452 53.1514 310.003 57.6746 308.638 58.7385Z" fill="url(#paint2_linear_1630_6150)"/>
<rect x="149.379" y="4.59991" width="1587.4343" height="148.033" fill="url(#paint3_linear_1630_6150)"/>
<path d="M266.048 12.9634L246.812 4.59991V152.633H266.048V12.9634Z" fill="url(#paint4_linear_1630_6150)"/>
<rect x="-5.76367" y="152.633" width="94.9253" height="74.4348" fill="url(#paint5_linear_1630_6150)"/>
<rect x="4.92383" y="161.06" width="84.0512" height="65.9244" fill="#463BDE"/>
<rect x="4.92383" y="161.06" width="84.0512" height="13.1867" fill="#3530BA"/>
<rect x="6.125" y="187.458" width="84.0512" height="13.1867" fill="#3530BA"/>
<rect x="6.125" y="213.881" width="84.0512" height="13.1867" fill="#3530BA"/>
<rect x="4.92383" y="161.06" width="2.39998" height="66.0085" fill="#ACA2FD"/>
<rect width="101.198" height="4.18173" transform="matrix(1 0 0 -1 -12.0371 152.633)" fill="#A99EFE"/>
<rect width="9.61798" height="9.61798" transform="matrix(-1 0 0 1 275.666 12.9634)" fill="#EBEBFF"/>
<rect width="5.43625" height="5.43625" transform="matrix(-1 0 0 1 281.104 7.52713)" fill="#D5D5FA"/>
<g style="mix-blend-mode:multiply" opacity="0.7">
<path d="M21.4327 227.068L35.979 227.068V152.633H-5.76367V156.569H20.012V161.087H21.4327V227.068Z" fill="url(#paint6_linear_1630_6150)"/>
</g>
<rect x="35.9277" y="122.196" width="128.358" height="113.095" fill="url(#paint7_linear_1630_6150)"/>
<rect x="46.9512" y="169.367" width="84.0512" height="65.9244" fill="url(#paint8_linear_1630_6150)"/>
<rect x="96.4258" y="67.7277" width="61.8191" height="54.4682" fill="url(#paint9_linear_1630_6150)"/>
<rect x="46.9512" y="169.367" width="2.39998" height="65.9244" fill="#ACA2FD"/>
<rect x="85.0547" y="169.367" width="1.46141" height="65.9244" fill="#ACA2FD"/>
<rect opacity="0.4" x="86.3086" y="169.367" width="1.46141" height="65.9244" fill="#ACA2FD"/>
<path d="M61.636 234.356C57.6794 234.356 48.6344 240.992 42.8242 242.67H127.335L122.231 195.771C122.393 192.078 122.488 177.6 115.946 177.601C109.73 177.602 106.127 183.187 107.028 190.303C101.004 189.583 98.9201 193.816 101.004 198.089C94.9307 197.423 85.0158 202.805 93.7663 214.942C89.1474 215.664 88.5807 218.271 88.5807 220.992C79.2359 218.876 78.1556 226.106 79.2359 230.175C68.1068 227.679 63.4083 232.913 57.1973 231.039C57.4998 232.119 60.3396 233.888 61.636 234.356Z" fill="url(#paint10_linear_1630_6150)"/>
<path d="M42.8242 242.67C48.6344 240.992 57.6794 234.356 61.636 234.356C61.2881 234.23 60.8289 234.011 60.3374 233.737C59.7905 233.442 59.2941 233.125 58.8563 232.794C58.028 232.193 57.338 231.542 57.1973 231.039C63.4083 232.913 68.1068 227.679 79.2359 230.175C79.0729 229.622 78.9631 228.99 78.9176 228.319C78.8287 227.338 78.8882 226.474 79.0639 225.735C79.7264 222.142 82.4104 218.814 88.5807 220.992C88.5807 218.271 89.1474 215.664 93.7663 214.942C85.0158 202.805 94.9307 197.423 101.004 198.089C98.9201 193.816 101.004 189.583 107.028 190.303C106.127 183.187 109.73 177.602 115.946 177.601C109.054 180.531 107.028 185.103 107.028 190.303C107.028 190.869 107.183 191.993 107.857 192.742C107.857 195.588 99.1234 191.591 101.004 198.089L101.882 200.926C92.9965 199.61 87.9337 206.852 93.7663 214.942L94.9273 216.235C92.0826 216.235 89.0181 217.707 88.5807 220.992C89.9726 223.95 87.3689 223.994 87.8344 227.233C85.3565 221.327 80.1181 221.297 79.0639 225.735C78.9033 226.605 78.8615 227.492 78.9176 228.319C78.97 228.897 79.0739 229.516 79.2359 230.175L70.0833 232.035C67.8386 232.514 62.4809 233.872 57.1973 231.039C57.5651 231.65 58.1302 232.243 58.8563 232.794C59.3304 233.137 59.8498 233.464 60.3374 233.737C62.2666 234.777 64.8247 235.553 67.6625 235.82L63.8046 237.702C58.3701 240.402 53.7025 241.447 42.8242 242.67Z" fill="#9383FF"/>
<path d="M323.288 155.519C321.216 154.602 318.654 156.272 318.654 159.494L319.781 200.813H348.831C348.441 199.477 345.546 199.588 343.82 196.916C345.936 194.633 348.312 188.483 340.368 188.787C342.341 181.705 338.844 182.363 336.85 183.577C339.589 180.603 339.199 171.528 333.91 171.082C333.91 171.082 337.195 160.337 331.516 157.72C331.516 155.103 331.516 143.856 327.006 143.856C323.113 143.856 323.288 155.519 323.288 155.519Z" fill="url(#paint11_linear_1630_6150)"/>
<path d="M323.292 155.537C322.035 154.981 320.744 155.979 320.744 157.932L321.427 200.813H339.038C338.802 200.003 337.047 200.07 336 198.45C337.283 197.066 338.724 193.338 333.908 193.522C335.104 189.229 332.984 189.628 331.775 190.364C333.435 188.561 333.199 183.059 329.993 182.789C329.993 182.789 331.984 158.443 328.541 156.857C328.541 155.271 328.541 148.452 325.807 148.452C323.447 148.452 323.292 155.537 323.292 155.537Z" fill="url(#paint12_linear_1630_6150)"/>
<path d="M293.156 154.297H313.556L325.742 177.993V200.813H293.156L293.156 154.297Z" fill="url(#paint13_linear_1630_6150)"/>
<path d="M290.42 171.454L300.932 168.86V187.013H290.42V171.454Z" fill="#08165D"/>
<path d="M310.804 202C310.062 197.318 307.213 196.448 305.871 196.689L303.393 230.4H342.222C338.466 229.982 337.18 228.139 337.006 227.27C338.211 224.998 335.847 224.817 334.514 225.01C334.05 221.625 328.834 223.291 326.284 224.546C327.304 221.301 324.893 221.146 323.561 221.475C323.329 219.713 321.223 220.741 320.199 221.475C319.55 219.666 317.842 219.06 317.07 218.983C317.668 216.765 317.987 215.398 317.303 214.123C316.62 212.847 314.327 212.492 312.723 213.013C312.975 210.296 315.8 206.833 310.282 208.165C310.282 208.165 311.011 203.308 310.804 202Z" fill="url(#paint14_linear_1630_6150)"/>
<path d="M313.554 154.297H311.642L325.744 179.227V179.996H328.203L313.554 154.297Z" fill="#4D3FEC"/>
<path d="M307.682 200.824C308.615 199.892 307.417 198.418 307.221 196.854L307.242 230.399H319.378C319.145 230.154 318.796 230.039 318.57 229.932C319.464 228.609 317.711 228.261 316.598 228.202C316.883 227.684 316.786 226.856 315.091 227.197C316.133 226.542 315.008 225.456 313.961 224.685C315.656 224.629 316.538 225.2 316.883 225.845C317.18 226.401 316.883 226.802 317.477 227.197C320.282 226.802 321.65 228.56 321.308 230.399H340.252C339.035 230.107 338.384 229.789 337.32 228.767C336.018 227.744 335.073 229.081 334.432 228.202C335.671 227.287 335.341 226.421 334.934 226.255C334.518 226.085 333.636 226.088 333.113 226.255L334.432 224.999C334.234 224.731 334.016 224.529 333.784 224.383C331.668 223.045 328.751 224.975 326.284 224.546C324.31 224.202 323.856 222.841 324.4 222.326C323.055 222.326 323.538 224.685 321.718 224.685C322.88 223.499 321.946 222.295 323.538 221.475C322.022 221.347 320.853 222.412 320.366 223.429C320.366 223.429 320.514 222.717 320.203 221.475C319.695 219.444 313.396 223.429 313.396 223.429C315.462 221.729 315.253 219.642 317.07 218.98C316.113 218.768 315.215 219.308 314.397 219.518C314.053 219.606 313.71 219.446 313.472 219.181L313.396 219.097C314.882 218.35 314.859 217.313 314.629 216.368C313.396 217.75 311.172 216.506 310.319 218.657C310.319 218.657 309.955 216.94 311.7 214.952C312.989 213.484 310.896 212.865 308.749 214.136C309.124 213.154 311.799 211.156 310.319 210.557C311.04 208.76 310.809 208.499 310.262 208.186C308.749 208.59 309.142 205.716 309.503 202.959C309.863 200.202 307.682 200.824 307.682 200.824Z" fill="url(#paint15_linear_1630_6150)"/>
<path d="M317.477 227.197C316.883 226.802 317.181 226.401 316.883 225.845C317.052 225.945 317.142 226.014 317.275 226.236C317.275 226.236 317.918 226.038 317.715 226.656C317.715 226.656 317.918 226.527 318.528 226.576C319.139 226.626 319.605 227.367 319.605 227.367C320.139 227.233 322.562 227.576 322.786 229.212C322.427 228.953 322.235 228.921 321.903 229.212C322.151 229.273 322.568 229.298 322.966 229.794C323.363 230.291 326.605 230.331 327.111 230.4H321.308C321.547 229.112 320.949 227.864 319.605 227.367C319.03 227.154 318.318 227.079 317.477 227.197Z" fill="url(#paint16_linear_1630_6150)"/>
<path d="M110.489 198.827C109.106 197.447 110.882 195.261 111.172 192.943L111.814 242.67H98.6673C97.7675 242.359 95.5769 241.534 94.0131 240.715C92.4493 239.896 95.5335 239.505 97.2711 239.412C97.7365 239.132 98.8349 238.444 99.5051 237.922C99.1573 236.991 99.3236 236.478 101.181 234.199C99.1158 236.409 96.8056 235.223 96.8056 235.688C96.8056 236.061 96.2471 237.333 95.9679 237.922C95.6886 237.674 94.5716 237.327 92.3376 237.922C90.1036 238.518 90.0416 241.335 90.2898 242.67H60.7973L64.1341 241.267C65.7372 240.593 67.4389 240.17 69.1389 239.804C70.0728 239.602 70.8353 239.412 70.8353 239.412C70.0907 238.147 69.7183 237.271 70.0907 236.526C70.3885 235.93 72.0144 236.278 72.7901 236.526C72.6865 235.428 72.3353 234.985 70.8353 234.664C72.5569 232.762 75.8308 233.609 77.165 234.664C78.6854 234.509 82.0322 234.145 82.9126 233.992C85.8393 233.483 86.5119 231.465 85.7063 230.701C87.7001 230.701 86.9844 234.199 89.682 234.199C87.9588 232.44 89.3436 230.655 86.9844 229.44C89.2307 229.25 90.9642 230.83 91.686 232.337C91.686 232.337 91.4668 231.281 91.9272 229.44C92.6804 226.429 102.018 232.337 102.018 232.337C94.773 225.216 95.0832 222.123 92.3902 221.142C93.9125 220.805 95.3328 221.751 96.6148 221.998C96.964 222.066 97.3056 221.905 97.5435 221.64L97.8366 221.315C95.633 220.207 95.6671 218.67 96.0087 217.27C97.8366 219.319 101.132 217.475 102.398 220.663C102.398 220.663 102.936 218.118 100.35 215.171C98.4395 212.994 101.542 212.078 104.725 213.961C104.17 212.506 100.204 209.543 102.398 208.655C101.329 205.992 101.671 205.604 102.482 205.141C104.725 205.739 108.324 206.079 107.789 201.992C107.255 197.905 110.489 198.827 110.489 198.827Z" fill="url(#paint17_linear_1630_6150)"/>
<path d="M292.145 154.297H313.552V155.509L296.593 179.986H287.963L292.145 154.297Z" fill="#4D3FEC"/>
<path d="M289.217 154.297H313.555L295.757 179.986H285.035L289.217 154.297Z" fill="#9483FF"/>
<path d="M230.061 141.525H285.476L307.221 183.178V230.4H222.629L230.061 141.525Z" fill="url(#paint18_linear_1630_6150)"/>
<rect width="99.1615" height="4.16481" transform="matrix(1 0 0 -1 29.3848 122.195)" fill="#A99EFE"/>
<rect width="70.5179" height="4.16481" transform="matrix(1 0 0 -1 91.4316 67.7277)" fill="#A99EFE"/>
<g style="mix-blend-mode:multiply" opacity="0.7">
<path d="M123.622 118.958L138.168 118.958V67.7276H96.4258V71.663H123.622V76.1813V118.958Z" fill="url(#paint19_linear_1630_6150)"/>
</g>
<g style="mix-blend-mode:multiply" opacity="0.7">
<path d="M123.621 173.426L138.168 173.426V122.196H35.916V126.131H123.621V130.65V173.426Z" fill="url(#paint20_linear_1630_6150)"/>
</g>
<path d="M222.629 188.132L251.186 181.087V230.4H222.629V188.132Z" fill="url(#paint21_linear_1630_6150)"/>
<path d="M222.629 188.132L251.186 181.087V192.764L222.629 201.127V188.132Z" fill="url(#paint22_linear_1630_6150)"/>
<path d="M285.89 141.525H280.695L307.645 186.529V188.619H314.324L285.89 141.525Z" fill="#4D3FEC"/>
<path d="M284.636 141.525H280.278L307.199 186.242V188.619H313.07L284.636 141.525Z" fill="#020515"/>
<path d="M227.551 141.525L285.003 142.125L286.093 143.946L250.995 188.592H227.551V141.525Z" fill="#020515"/>
<path d="M225.041 141.525H285.475L249.974 186.698H225.041V141.525Z" fill="url(#paint23_linear_1630_6150)"/>
<path d="M231.633 141.525H265.409L228.835 186.691H225.162L231.633 141.525Z" fill="url(#paint24_linear_1630_6150)"/>
<path fill-rule="evenodd" clip-rule="evenodd" d="M264.618 146.611C264.775 146.555 264.962 146.423 265.12 146.215C265.277 146.006 265.353 145.79 265.364 145.624C265.375 145.453 265.321 145.389 265.298 145.371C265.274 145.353 265.198 145.319 265.037 145.377C264.88 145.433 264.693 145.565 264.536 145.774C264.378 145.982 264.303 146.198 264.292 146.365C264.28 146.535 264.334 146.599 264.358 146.617C264.381 146.635 264.457 146.669 264.618 146.611ZM265.454 146.466C265.165 146.849 264.769 147.068 264.441 147.061L241.148 176.542H248.385L259.26 162.831C259.056 162.524 259.136 161.988 259.478 161.534C259.876 161.006 260.479 160.79 260.824 161.05C261.17 161.311 261.127 161.95 260.728 162.478C260.408 162.902 259.956 163.125 259.611 163.061L248.919 176.542H257.957L257.627 176.96H248.588L245.603 180.723H254.675L254.341 181.141H245.272L240.866 186.696H240.332L244.738 181.141H226.594V180.723H245.07L248.054 176.96H227.647V176.542H233.306L252.021 152.944C251.818 152.637 251.897 152.101 252.24 151.648C252.638 151.12 253.241 150.903 253.586 151.164C253.931 151.425 253.888 152.064 253.49 152.591C253.17 153.016 252.717 153.239 252.373 153.174L233.84 176.542H240.615L264.041 146.893C263.767 146.604 263.83 146.014 264.202 145.522C264.601 144.993 265.204 144.776 265.55 145.037C265.895 145.298 265.852 145.938 265.454 146.466ZM252.414 152.752C252.449 152.768 252.524 152.783 252.656 152.735C252.812 152.679 252.999 152.548 253.156 152.339C253.314 152.131 253.389 151.916 253.4 151.749C253.411 151.579 253.358 151.515 253.334 151.498C253.311 151.48 253.235 151.446 253.074 151.504C252.918 151.56 252.731 151.691 252.574 151.9C252.416 152.108 252.341 152.324 252.33 152.49C252.321 152.624 252.352 152.692 252.378 152.723L252.414 152.752ZM259.652 162.638C259.688 162.655 259.762 162.669 259.894 162.622C260.051 162.565 260.237 162.434 260.395 162.226C260.552 162.017 260.627 161.802 260.638 161.636C260.649 161.465 260.596 161.402 260.572 161.384C260.549 161.366 260.473 161.332 260.313 161.39C260.156 161.446 259.969 161.577 259.812 161.786C259.655 161.994 259.58 162.21 259.568 162.376C259.559 162.51 259.591 162.578 259.616 162.609L259.652 162.638Z" fill="#9483FF"/>
<path d="M227.381 234.394C228.701 232.387 230.192 221.438 230.192 218.05C226.836 224.035 214.266 241.746 210.447 246.333H246.789C240.273 245.549 233.838 244.475 227.381 243.32L231.445 240.237H226.82C228.747 238.729 232.733 234.394 234.477 231.255L227.381 234.394Z" fill="url(#paint25_linear_1630_6150)"/>
<path d="M130.686 37.5373C130.941 34.272 133.665 31.7522 136.94 31.7522H222.676C225.59 31.7522 228.455 32.4948 231.003 33.9099L233.774 35.4494C237.627 37.5902 239.882 41.7778 239.549 46.1733L225.183 235.51C224.719 241.615 219.63 246.333 213.507 246.333H121.191C117.534 246.333 114.653 243.218 114.937 239.573L130.686 37.5373Z" fill="url(#paint26_linear_1630_6150)"/>
<path d="M238.739 40.8364C239.41 42.4677 239.69 44.2337 239.556 45.9928L224.705 240.856C224.419 244.813 224.541 242.209 221.73 244.571L237.578 38.8787L238.727 40.808L238.739 40.8364Z" fill="url(#paint27_linear_1630_6150)"/>
<path d="M122.886 42.1677C123.343 36.2892 128.246 31.7522 134.142 31.7522H222.955C228.56 31.7522 232.978 36.5268 232.544 42.1156L217.357 237.46C216.968 242.468 212.791 246.333 207.768 246.333H120.572C113.26 246.333 107.498 240.105 108.065 232.815L122.886 42.1677Z" fill="url(#paint28_linear_1630_6150)"/>
<path d="M122.52 42.1774C122.973 36.2948 127.878 31.7522 133.778 31.7522H222.887C228.49 31.7522 232.907 36.5215 232.477 42.1074L217.835 232.565C217.352 238.846 212.142 243.711 205.843 243.763L118.342 244.478C112.219 244.528 107.364 239.328 107.833 233.223L122.52 42.1774Z" fill="url(#paint29_linear_1630_6150)"/>
<g filter="url(#filter0_i_1630_6150)">
<path d="M124.413 43.3556C124.744 38.994 128.379 35.6235 132.753 35.6235H155.614C156.411 35.6235 157.006 36.3561 156.842 37.1355L156.323 39.6138C156.159 40.3933 156.754 41.1258 157.55 41.1258H197.314C198.498 41.1258 199.52 40.299 199.768 39.1419L200.309 36.6155C200.432 36.0369 200.944 35.6235 201.535 35.6235H220.883C225.021 35.6235 228.284 39.1433 227.972 43.2691L213.725 231.455C213.345 236.471 209.164 240.347 204.134 240.347H116.716C112.822 240.347 109.751 237.034 110.045 233.151L124.413 43.3556Z" fill="url(#paint30_linear_1630_6150)"/>
</g>
<path d="M232.318 73.2952C232.353 72.8448 232.739 72.5034 233.19 72.5241L234.58 72.588C234.816 72.5989 234.996 72.8026 234.978 73.038L232.75 101.908L230.977 101.818C230.507 101.795 230.149 101.388 230.185 100.919L232.318 73.2952Z" fill="url(#paint31_linear_1630_6150)"/>
<rect x="233.727" y="72.5261" width="2.13517" height="29.3753" rx="0.836346" transform="rotate(4.41512 233.727 72.5261)" fill="url(#paint32_linear_1630_6150)"/>
<path d="M277.447 171.784C277.447 169.22 279.526 167.141 282.089 167.141C284.653 167.141 286.732 169.22 286.732 171.784V196.04H277.447V171.784Z" fill="#CDCBFA"/>
<path d="M310.141 166.333C310.141 165.021 311.204 163.958 312.516 163.958C313.827 163.958 314.891 165.021 314.891 166.333V178.744H310.141V166.333Z" fill="#EEF5F7"/>
<path d="M276.096 171.784C276.096 169.22 278.174 167.141 280.738 167.141C283.302 167.141 285.38 169.22 285.38 171.784V196.04H276.096V171.784Z" fill="url(#paint33_linear_1630_6150)"/>
<path d="M309.449 166.333C309.449 165.021 310.513 163.958 311.824 163.958C313.136 163.958 314.199 165.021 314.199 166.333V178.744H309.449V166.333Z" fill="url(#paint34_linear_1630_6150)"/>
<path d="M251.201 215.212H286.525" stroke="#B8ADFF" stroke-width="0.418173"/>
<path d="M241.203 215.212H251.185" stroke="#B8ADFF" stroke-width="0.418173"/>
<path d="M256.094 219.139H294.92" stroke="#B8ADFF" stroke-width="0.418173"/>
<path d="M262.965 223.065H302.008" stroke="#B8ADFF" stroke-width="0.418173"/>
<path d="M256.094 214.885V219.466" stroke="#B8ADFF" stroke-width="0.418173"/>
<path d="M271.146 215.212V219.139" stroke="#B8ADFF" stroke-width="0.418173"/>
<path d="M286.197 215.212V219.139" stroke="#B8ADFF" stroke-width="0.418173"/>
<path d="M278.998 211.285V215.212" stroke="#B8ADFF" stroke-width="0.418173"/>
<path d="M278.998 219.139V223.065" stroke="#B8ADFF" stroke-width="0.418173"/>
<path d="M263.293 219.139V223.065" stroke="#B8ADFF" stroke-width="0.418173"/>
<circle cx="302.968" cy="223.065" r="1.15751" stroke="#B8ADFF" stroke-width="0.418173"/>
<circle cx="278.999" cy="210.211" r="1.15751" stroke="#B8ADFF" stroke-width="0.418173"/>
<circle r="1.15751" transform="matrix(0.592704 0.80542 -0.592869 0.805299 240.16 215.212)" stroke="#B8ADFF" stroke-width="0.418173"/>
<circle r="1.15751" transform="matrix(0.592704 0.80542 -0.592869 0.805299 47.1599 144.478)" stroke="#ACA2FD" stroke-width="0.418173"/>
<circle r="1.15751" transform="matrix(0.592704 0.80542 -0.592869 0.805299 58.1326 132.616)" stroke="#ACA2FD" stroke-width="0.418173"/>
<path d="M280.391 167.154C280.66 167.133 280.951 167.146 281.155 167.146V196.045H280.391V167.154Z" fill="#CDCBFA"/>
<rect x="281.156" y="167.138" width="1.0225" height="28.9048" fill="#A99EFE"/>
<rect x="286.732" y="181" width="0.972518" height="10.6361" transform="rotate(90 286.732 181)" fill="#A99EFE"/>
<g style="mix-blend-mode:multiply">
<path d="M234.503 112.976L226.735 119.748L223.051 167.548L231.316 153.308L234.503 112.976Z" fill="#C4C4C4"/>
</g>
<g style="mix-blend-mode:multiply">
<path d="M230.516 166.53L221.515 186.203L220.639 198.028L229.341 181.398L230.516 166.53Z" fill="#C4C4C4"/>
</g>
<g style="mix-blend-mode:overlay">
<path d="M239.76 43.8122L231.065 63.4855L230.219 75.3102L238.625 58.6805L239.76 43.8122Z" fill="url(#paint35_linear_1630_6150)"/>
</g>
<ellipse cx="175.515" cy="36.1356" rx="1.64837" ry="2.01928" transform="rotate(7.2064 175.515 36.1356)" fill="#6559EF"/>
<ellipse cx="176.1" cy="36.2095" rx="1.05833" ry="1.29647" transform="rotate(7.2064 176.1 36.2095)" fill="#4438D2"/>
<path d="M47.1602 165.204V157.603M47.1602 145.838V157.603M47.1602 157.603H58.1344M58.1344 157.603V133.725M58.1344 157.603H63.5793V145.838H114.299" stroke="#ACA2FD" stroke-width="0.418173"/>
<path d="M42.8242 169.367L112.726 169.367L113.074 165.202H42.8242V169.367Z" fill="#4A3DE6"/>
<path d="M133.908 50.6228C131.483 50.6228 129.371 52.5832 129.191 55.0015L123.756 127.973C123.576 130.391 125.395 132.351 127.82 132.351H211.088C213.513 132.351 215.625 130.391 215.805 127.973L221.241 55.0015C221.421 52.5832 219.601 50.6228 217.176 50.6228H133.908Z" fill="url(#paint36_linear_1630_6150)" stroke="#0D143B" stroke-width="0.418173"/>
<path d="M184.672 63.1595H174.306L167.218 75.1681L166.357 86.7321H182.916L184.672 63.1595Z" fill="url(#paint37_linear_1630_6150)"/>
<path d="M176.918 78.134H162.967L155.88 90.1427L155.019 101.707H175.162L176.918 78.134Z" fill="#E4E9F7"/>
<path d="M185.416 71.854L180.172 70.5398L179.486 79.7389H184.828L185.416 71.854Z" fill="#08165D"/>
<path d="M174.307 63.1595H175.279L167.172 75.7931L167.143 76.1831H165.893L174.307 63.1595Z" fill="#4D3FEC"/>
<path d="M162.967 78.134H163.939L155.832 90.7677L155.803 91.1576H154.553L162.967 78.134Z" fill="#4D3FEC"/>
<path d="M185.186 63.1595H174.307L174.261 63.7737L181.955 76.178H186.341L185.186 63.1595Z" fill="#4D3FEC"/>
<path d="M173.848 78.134H162.969L162.923 78.7483L170.617 91.1526H175.003L173.848 78.134Z" fill="#4D3FEC"/>
<path d="M186.674 63.1595H174.306L182.381 76.178H187.829L186.674 63.1595Z" fill="#9483FF"/>
<path d="M177.459 78.134H162.966L171.041 91.1526H176.489L177.459 78.134Z" fill="#9483FF"/>
<path d="M217.217 56.6874H189.058L176.435 77.7955L174.653 101.725H217.639L217.217 56.6874Z" fill="url(#paint38_linear_1630_6150)"/>
<path d="M219.234 80.3061L204.988 76.736L203.127 101.725H217.639L219.234 80.3061Z" fill="url(#paint39_linear_1630_6150)"/>
<path d="M219.289 79.5741L204.988 76.736L204.548 82.6532L218.744 86.8915L219.289 79.5741Z" fill="url(#paint40_linear_1630_6150)"/>
<path d="M188.846 56.6874H191.486L176.092 79.4934L176.013 80.5526H172.619L188.846 56.6874Z" fill="#4D3FEC"/>
<path d="M189.484 56.6874H191.699L176.331 79.3481L176.241 80.5526H173.257L189.484 56.6874Z" fill="#020515"/>
<path d="M218.492 56.6874L189.274 56.9912L188.652 57.914L204.802 80.5388H216.716L218.492 56.6874Z" fill="#020515"/>
<path d="M220.994 56.6874L189.058 56.6874L205.393 79.5789H219.289L220.994 56.6874Z" fill="url(#paint41_linear_1630_6150)"/>
<path d="M191.995 72.0213C192.091 70.722 191.114 69.6688 189.811 69.6688C188.508 69.6688 187.374 70.722 187.277 72.0213L186.361 84.3135H191.079L191.995 72.0213Z" fill="#CDCBFA"/>
<path d="M192.682 72.0213C192.779 70.722 191.801 69.6688 190.498 69.6688C189.196 69.6688 188.061 70.722 187.964 72.0213L187.049 84.3135H191.767L192.682 72.0213Z" fill="url(#paint42_linear_1630_6150)"/>
<path d="M175.938 69.2591C175.987 68.5943 175.487 68.0555 174.82 68.0555C174.154 68.0555 173.573 68.5943 173.524 69.2591L173.055 75.5483H175.469L175.938 69.2591Z" fill="url(#paint43_linear_1630_6150)"/>
<path d="M190.673 69.6753C190.537 69.6646 190.389 69.6711 190.285 69.6711L189.195 84.3157H189.583L190.673 69.6753Z" fill="#CDCBFA"/>
<rect width="0.519597" height="14.6884" transform="matrix(-1 0 -0.0742825 0.997237 190.285 69.6671)" fill="#A99EFE"/>
<rect width="0.494197" height="5.40485" transform="matrix(-0.0742825 0.997237 1 -4.35906e-08 186.93 76.6917)" fill="#A99EFE"/>
<g style="mix-blend-mode:multiply">
<path d="M125.922 101.708H217.553L215.595 127.998C215.423 130.301 213.412 132.168 211.102 132.168H127.835C125.525 132.168 123.792 130.301 123.964 127.998L125.922 101.708Z" fill="#0E153D"/>
</g>
<rect width="12.5452" height="8.36346" rx="4.18173" transform="matrix(1 0 -0.0742825 0.997237 135.082 55.0196)" fill="#4D3FED"/>
<rect width="29.2721" height="8.36346" rx="4.18173" transform="matrix(1 0 -0.0742825 0.997237 131.824 87.5468)" fill="#4D3FED"/>
<rect width="79.8711" height="2.50904" rx="1.25452" transform="matrix(1 0 -0.0742825 0.997237 129.213 122.576)" fill="#252B50"/>
<rect width="38.0538" height="3.34539" rx="1.67269" transform="matrix(1 0 -0.0742825 0.997237 130.332 107.564)" fill="white"/>
<rect width="29.2721" height="1.67269" rx="0.836346" transform="matrix(1 0 -0.0742825 0.997237 129.896 113.402)" fill="#252B50"/>
<path d="M129.12 123.827C129.171 123.136 129.775 122.576 130.467 122.576H158.903L158.717 125.078H130.281C129.588 125.078 129.068 124.518 129.12 123.827Z" fill="#9383FF"/>
<path d="M141.034 57.3858L141.168 57.5238L141.323 57.3858C142.056 56.7326 143.169 56.7326 143.805 57.3858C144.436 58.0342 144.358 59.0814 143.63 59.7298L141.281 61.823C141.021 62.0545 140.639 62.0545 140.414 61.823L138.377 59.7297C137.746 59.0814 137.824 58.0342 138.551 57.3858C139.284 56.7326 140.398 56.7326 141.034 57.3858Z" stroke="white" stroke-width="0.418173"/>
<path d="M126.977 143.636C124.552 143.636 122.44 145.596 122.26 148.014L116.837 220.807C116.657 223.225 118.477 225.186 120.902 225.186H204.17C206.595 225.186 208.707 223.225 208.887 220.807L214.309 148.014C214.489 145.596 212.669 143.636 210.244 143.636H126.977Z" fill="url(#paint44_linear_1630_6150)" stroke="#0D143B" stroke-width="0.418173"/>
<path d="M177.744 156.172H167.378L160.291 168.181L159.429 179.745H175.988L177.744 156.172Z" fill="url(#paint45_linear_1630_6150)"/>
<path d="M169.99 171.147H156.04L148.952 183.156L148.091 194.72H168.234L169.99 171.147Z" fill="#E4E9F7"/>
<path d="M178.488 164.867L173.244 163.553L172.559 172.752H177.901L178.488 164.867Z" fill="#08165D"/>
<path d="M167.38 156.172H168.351L160.244 168.806L160.215 169.196H158.965L167.38 156.172Z" fill="#4D3FEC"/>
<path d="M156.04 171.147H157.012L148.904 183.781L148.875 184.171H147.626L156.04 171.147Z" fill="#4D3FEC"/>
<path d="M178.258 156.172H167.379L167.334 156.787L175.027 169.191H179.413L178.258 156.172Z" fill="#4D3FEC"/>
<path d="M166.92 171.147H156.042L155.996 171.761L163.689 184.165H168.075L166.92 171.147Z" fill="#4D3FEC"/>
<path d="M179.746 156.172H167.378L175.453 169.191H180.901L179.746 156.172Z" fill="#9483FF"/>
<path d="M170.531 171.147H156.039L164.113 184.165H169.562L170.531 171.147Z" fill="#9483FF"/>
<path d="M210.29 149.7H182.13L169.507 170.808L167.725 194.738H210.712L210.29 149.7Z" fill="url(#paint46_linear_1630_6150)"/>
<path d="M212.306 173.319L198.061 169.749L196.199 194.738H210.711L212.306 173.319Z" fill="url(#paint47_linear_1630_6150)"/>
<path d="M212.361 172.587L198.061 169.749L197.62 175.666L211.816 179.904L212.361 172.587Z" fill="url(#paint48_linear_1630_6150)"/>
<path d="M181.918 149.7H184.558L169.164 172.506L169.085 173.565H165.691L181.918 149.7Z" fill="#4D3FEC"/>
<path d="M182.556 149.7H184.771L169.403 172.361L169.313 173.565H166.33L182.556 149.7Z" fill="#020515"/>
<path d="M211.564 149.7L182.347 150.004L181.724 150.927L197.874 173.552H209.788L211.564 149.7Z" fill="#020515"/>
<path d="M214.066 149.7L182.13 149.7L198.465 172.592H212.361L214.066 149.7Z" fill="url(#paint49_linear_1630_6150)"/>
<path d="M185.067 165.034C185.164 163.735 184.186 162.682 182.883 162.682C181.58 162.682 180.446 163.735 180.349 165.034L179.433 177.326H184.151L185.067 165.034Z" fill="#CDCBFA"/>
<path d="M185.754 165.034C185.851 163.735 184.874 162.682 183.571 162.682C182.268 162.682 181.133 163.735 181.037 165.034L180.121 177.326H184.839L185.754 165.034Z" fill="url(#paint50_linear_1630_6150)"/>
<path d="M169.01 162.272C169.059 161.607 168.559 161.068 167.893 161.068C167.226 161.068 166.646 161.607 166.596 162.272L166.128 168.561H168.541L169.01 162.272Z" fill="url(#paint51_linear_1630_6150)"/>
<path d="M183.746 162.688C183.609 162.678 183.461 162.684 183.358 162.684L182.267 177.329H182.655L183.746 162.688Z" fill="#CDCBFA"/>
<rect width="0.519597" height="14.6884" transform="matrix(-1 0 -0.0742825 0.997237 183.357 162.68)" fill="#A99EFE"/>
<rect width="0.494197" height="5.40485" transform="matrix(-0.0742825 0.997237 1 -4.35906e-08 180.002 169.705)" fill="#A99EFE"/>
<g style="mix-blend-mode:multiply">
<path d="M118.992 194.72H210.623L208.665 221.011C208.494 223.314 206.482 225.181 204.173 225.181H120.905C118.595 225.181 116.862 223.314 117.034 221.011L118.992 194.72Z" fill="#0C1339"/>
</g>
<rect width="12.5452" height="8.36346" rx="4.18173" transform="matrix(1 0 -0.0742825 0.997237 128.154 148.033)" fill="#4D3FED"/>
<rect width="29.2721" height="8.36346" rx="4.18173" transform="matrix(1 0 -0.0742825 0.997237 124.895 180.56)" fill="#4D3FED"/>
<rect width="79.8711" height="2.50904" rx="1.25452" transform="matrix(1 0 -0.0742825 0.997237 122.285 215.589)" fill="#252B50"/>
<rect width="38.0538" height="3.34539" rx="1.67269" transform="matrix(1 0 -0.0742825 0.997237 123.404 200.577)" fill="white"/>
<rect width="29.2721" height="1.67269" rx="0.836346" transform="matrix(1 0 -0.0742825 0.997237 122.969 206.415)" fill="#252B50"/>
<path d="M122.192 216.84C122.243 216.149 122.847 215.589 123.54 215.589H151.975L151.789 218.091H123.353C122.66 218.091 122.141 217.531 122.192 216.84Z" fill="#9383FF"/>
<path d="M134.106 150.399L134.24 150.537L134.395 150.399C135.128 149.745 136.241 149.745 136.877 150.399C137.508 151.047 137.43 152.094 136.703 152.743L134.354 154.836C134.094 155.067 133.711 155.067 133.486 154.836L131.449 152.743C130.818 152.094 130.896 151.047 131.624 150.399C132.357 149.745 133.47 149.745 134.106 150.399Z" stroke="white" stroke-width="0.418173"/>
<defs>
<filter id="filter0_i_1630_6150" x="110.025" y="35.6235" width="117.967" height="204.723" filterUnits="userSpaceOnUse" color-interpolation-filters="sRGB">
<feFlood flood-opacity="0" result="BackgroundImageFix"/>
<feBlend mode="normal" in="SourceGraphic" in2="BackgroundImageFix" result="shape"/>
<feColorMatrix in="SourceAlpha" type="matrix" values="0 0 0 0 0 0 0 0 0 0 0 0 0 0 0 0 0 0 127 0" result="hardAlpha"/>
<feOffset dx="0.836346" dy="0.418173"/>
<feComposite in2="hardAlpha" operator="arithmetic" k2="-1" k3="1"/>
<feColorMatrix type="matrix" values="0 0 0 0 0.396078 0 0 0 0 0.34902 0 0 0 0 0.937255 0 0 0 1 0"/>
<feBlend mode="normal" in2="shape" result="effect1_innerShadow_1630_6150"/>
</filter>
<linearGradient id="paint0_linear_1630_6150" x1="82.8186" y1="23.9373" x2="153.992" y2="10.3952" gradientUnits="userSpaceOnUse">
<stop stop-color="#FEFEFE"/>
<stop offset="1" stop-color="#FEFEFE" stop-opacity="0"/>
</linearGradient>
<linearGradient id="paint1_linear_1630_6150" x1="312.219" y1="73.8643" x2="525.25" y2="57.4333" gradientUnits="userSpaceOnUse">
<stop stop-color="#FEFEFE"/>
<stop offset="1" stop-color="#FEFEFE" stop-opacity="0"/>
</linearGradient>
<linearGradient id="paint2_linear_1630_6150" x1="312.219" y1="73.8643" x2="525.25" y2="57.4333" gradientUnits="userSpaceOnUse">
<stop stop-color="#FEFEFE"/>
<stop offset="1" stop-color="#FEFEFE" stop-opacity="0"/>
</linearGradient>
<linearGradient id="paint3_linear_1630_6150" x1="204.923" y1="142.202" x2="330.608" y2="-22.6588" gradientUnits="userSpaceOnUse">
<stop stop-color="#9383FF"/>
<stop offset="1" stop-color="#EEF5F7"/>
</linearGradient>
<linearGradient id="paint4_linear_1630_6150" x1="217.602" y1="78.6167" x2="120.528" y2="102.636" gradientUnits="userSpaceOnUse">
<stop stop-color="#D5D5FA"/>
<stop offset="1" stop-color="#EEF5F7"/>
</linearGradient>
<linearGradient id="paint5_linear_1630_6150" x1="29.0217" y1="187.517" x2="-36.8847" y2="216.472" gradientUnits="userSpaceOnUse">
<stop stop-color="#D5D5FA"/>
<stop offset="1" stop-color="#EEF5F7"/>
</linearGradient>
<linearGradient id="paint6_linear_1630_6150" x1="128.353" y1="132.026" x2="-8.63503" y2="175.555" gradientUnits="userSpaceOnUse">
<stop stop-color="#3D35CB"/>
<stop offset="1" stop-color="#3D35CB" stop-opacity="0"/>
</linearGradient>
<linearGradient id="paint7_linear_1630_6150" x1="125.805" y1="178.744" x2="10.993" y2="227.73" gradientUnits="userSpaceOnUse">
<stop stop-color="#D5D5FA"/>
<stop offset="1" stop-color="#EEF5F7"/>
</linearGradient>
<linearGradient id="paint8_linear_1630_6150" x1="137.136" y1="193.69" x2="43.7929" y2="192.298" gradientUnits="userSpaceOnUse">
<stop/>
<stop offset="1" stop-color="#463BDE"/>
</linearGradient>
<linearGradient id="paint9_linear_1630_6150" x1="139.712" y1="94.9619" x2="84.4169" y2="118.554" gradientUnits="userSpaceOnUse">
<stop stop-color="#D5D5FA"/>
<stop offset="1" stop-color="#EEF5F7"/>
</linearGradient>
<linearGradient id="paint10_linear_1630_6150" x1="85.0795" y1="177.601" x2="133.251" y2="225.126" gradientUnits="userSpaceOnUse">
<stop stop-color="#4D3FEC"/>
<stop offset="1" stop-color="#0C1965"/>
</linearGradient>
<linearGradient id="paint11_linear_1630_6150" x1="307.095" y1="188.1" x2="372.348" y2="129.334" gradientUnits="userSpaceOnUse">
<stop stop-color="#06124D"/>
<stop offset="1" stop-color="#9483FF"/>
</linearGradient>
<linearGradient id="paint12_linear_1630_6150" x1="327.303" y1="198.787" x2="347.117" y2="164.373" gradientUnits="userSpaceOnUse">
<stop stop-color="#141951"/>
<stop offset="1" stop-color="#141951" stop-opacity="0"/>
</linearGradient>
<linearGradient id="paint13_linear_1630_6150" x1="286.998" y1="165.032" x2="333.2" y2="199.598" gradientUnits="userSpaceOnUse">
<stop stop-color="#B8ADFF"/>
<stop offset="1" stop-color="#EEF5F7"/>
</linearGradient>
<linearGradient id="paint14_linear_1630_6150" x1="314.666" y1="233.473" x2="336.276" y2="220.029" gradientUnits="userSpaceOnUse">
<stop stop-color="#4C3EEA"/>
<stop offset="1" stop-color="#9C8EFE"/>
</linearGradient>
<linearGradient id="paint15_linear_1630_6150" x1="320.842" y1="223.621" x2="309.091" y2="230.4" gradientUnits="userSpaceOnUse">
<stop stop-color="#5345ED"/>
<stop offset="1" stop-color="#0C1864"/>
</linearGradient>
<linearGradient id="paint16_linear_1630_6150" x1="317.76" y1="226.13" x2="327.563" y2="230.4" gradientUnits="userSpaceOnUse">
<stop stop-color="#0B1764"/>
<stop offset="1" stop-color="#5345ED"/>
</linearGradient>
<linearGradient id="paint17_linear_1630_6150" x1="81.0947" y1="217.806" x2="108.4" y2="242.67" gradientUnits="userSpaceOnUse">
<stop stop-color="#2B2BA4"/>
<stop offset="1" stop-color="#04061B"/>
</linearGradient>
<linearGradient id="paint18_linear_1630_6150" x1="263.352" y1="152.941" x2="328.223" y2="219.18" gradientUnits="userSpaceOnUse">
<stop stop-color="#9383FF"/>
<stop offset="1" stop-color="#EEF5F7"/>
</linearGradient>
<linearGradient id="paint19_linear_1630_6150" x1="286.186" y1="50.6097" x2="96.4258" y2="92.0864" gradientUnits="userSpaceOnUse">
<stop stop-color="#3D35CB"/>
<stop offset="1" stop-color="#3D35CB" stop-opacity="0"/>
</linearGradient>
<linearGradient id="paint20_linear_1630_6150" x1="410.798" y1="63.0709" x2="20.9377" y2="134.501" gradientUnits="userSpaceOnUse">
<stop stop-color="#3D35CB"/>
<stop offset="1" stop-color="#3D35CB" stop-opacity="0"/>
</linearGradient>
<linearGradient id="paint21_linear_1630_6150" x1="214.878" y1="202.434" x2="261.638" y2="221.337" gradientUnits="userSpaceOnUse">
<stop stop-color="#08165D"/>
<stop offset="1" stop-color="#9483FF"/>
</linearGradient>
<linearGradient id="paint22_linear_1630_6150" x1="231.746" y1="184.737" x2="272.972" y2="236.468" gradientUnits="userSpaceOnUse">
<stop/>
<stop offset="1" stop-color="#08165D" stop-opacity="0"/>
<stop offset="1" stop-color="#08165D" stop-opacity="0"/>
</linearGradient>
<linearGradient id="paint23_linear_1630_6150" x1="278.013" y1="150.158" x2="191.664" y2="170.598" gradientUnits="userSpaceOnUse">
<stop stop-color="#4D3FEC"/>
<stop offset="1" stop-color="#0D1966"/>
</linearGradient>
<linearGradient id="paint24_linear_1630_6150" x1="189.554" y1="159.199" x2="272.042" y2="141.525" gradientUnits="userSpaceOnUse">
<stop/>
<stop offset="1" stop-color="#08165D" stop-opacity="0"/>
<stop offset="1" stop-color="#08165D" stop-opacity="0"/>
</linearGradient>
<linearGradient id="paint25_linear_1630_6150" x1="205.183" y1="248.98" x2="237.322" y2="237.242" gradientUnits="userSpaceOnUse">
<stop stop-color="#473BE0"/>
<stop offset="1" stop-color="#CBC9FA"/>
</linearGradient>
<linearGradient id="paint26_linear_1630_6150" x1="259.095" y1="-15.945" x2="177.253" y2="246.333" gradientUnits="userSpaceOnUse">
<stop offset="0.150532" stop-color="#4D3FEC"/>
<stop offset="1" stop-color="#020515"/>
</linearGradient>
<linearGradient id="paint27_linear_1630_6150" x1="238.481" y1="91.652" x2="233.942" y2="91.5375" gradientUnits="userSpaceOnUse">
<stop offset="0.0465435" stop-color="#B8ADFF"/>
<stop offset="0.482503" stop-color="#7869F8" stop-opacity="0"/>
</linearGradient>
<linearGradient id="paint28_linear_1630_6150" x1="128.741" y1="41.4812" x2="211.029" y2="241.367" gradientUnits="userSpaceOnUse">
<stop stop-color="#C3BFFB"/>
<stop offset="1" stop-color="#060820"/>
</linearGradient>
<linearGradient id="paint29_linear_1630_6150" x1="128.381" y1="41.6171" x2="245.262" y2="256.188" gradientUnits="userSpaceOnUse">
<stop stop-color="#C3BFFB"/>
<stop offset="1" stop-color="#4D3FED"/>
</linearGradient>
<linearGradient id="paint30_linear_1630_6150" x1="225.26" y1="75.8535" x2="141.449" y2="39.3102" gradientUnits="userSpaceOnUse">
<stop stop-color="#EEF5F7"/>
<stop offset="1" stop-color="white"/>
</linearGradient>
<linearGradient id="paint31_linear_1630_6150" x1="233.7" y1="72.5066" x2="231.432" y2="101.876" gradientUnits="userSpaceOnUse">
<stop stop-color="#0C1864"/>
<stop offset="1" stop-color="#0C1865"/>
</linearGradient>
<linearGradient id="paint32_linear_1630_6150" x1="236.061" y1="59.0168" x2="238.719" y2="110.827" gradientUnits="userSpaceOnUse">
<stop stop-color="#FEFEFE"/>
<stop offset="1" stop-color="#4D3FEC"/>
</linearGradient>
<linearGradient id="paint33_linear_1630_6150" x1="272.821" y1="183.907" x2="292.314" y2="182.389" gradientUnits="userSpaceOnUse">
<stop stop-color="#030415"/>
<stop offset="1" stop-color="#4D3FEC"/>
</linearGradient>
<linearGradient id="paint34_linear_1630_6150" x1="307.774" y1="172.536" x2="317.747" y2="171.759" gradientUnits="userSpaceOnUse">
<stop offset="0.0001" stop-color="#0C1866"/>
<stop offset="1" stop-color="#9483FF"/>
</linearGradient>
<linearGradient id="paint35_linear_1630_6150" x1="230.82" y1="56.6843" x2="236.964" y2="62.3962" gradientUnits="userSpaceOnUse">
<stop stop-color="#EEF5F7"/>
<stop offset="0.0001" stop-color="#EEF5F7" stop-opacity="0.89"/>
<stop offset="1" stop-color="#EEF5F7" stop-opacity="0"/>
</linearGradient>
<linearGradient id="paint36_linear_1630_6150" x1="217.88" y1="130.81" x2="190.049" y2="31.5864" gradientUnits="userSpaceOnUse">
<stop stop-color="#EEF5F7"/>
<stop offset="1" stop-color="white"/>
</linearGradient>
<linearGradient id="paint37_linear_1630_6150" x1="187.396" y1="68.5997" x2="162.256" y2="85.5877" gradientUnits="userSpaceOnUse">
<stop stop-color="#B8ADFF"/>
<stop offset="1" stop-color="#EEF5F7"/>
</linearGradient>
<linearGradient id="paint38_linear_1630_6150" x1="199.869" y1="62.4724" x2="164.456" y2="96.0946" gradientUnits="userSpaceOnUse">
<stop stop-color="#9383FF"/>
<stop offset="1" stop-color="#EEF5F7"/>
</linearGradient>
<linearGradient id="paint39_linear_1630_6150" x1="222.633" y1="87.5538" x2="197.716" y2="95.7984" gradientUnits="userSpaceOnUse">
<stop stop-color="#08165D"/>
<stop offset="1" stop-color="#9483FF"/>
</linearGradient>
<linearGradient id="paint40_linear_1630_6150" x1="214.729" y1="78.5853" x2="192.269" y2="105.174" gradientUnits="userSpaceOnUse">
<stop/>
<stop offset="1" stop-color="#08165D" stop-opacity="0"/>
<stop offset="1" stop-color="#08165D" stop-opacity="0"/>
</linearGradient>
<linearGradient id="paint41_linear_1630_6150" x1="192.524" y1="61.0623" x2="234.755" y2="74.2323" gradientUnits="userSpaceOnUse">
<stop stop-color="#4D3FEC"/>
<stop offset="1" stop-color="#0D1966"/>
</linearGradient>
<linearGradient id="paint42_linear_1630_6150" x1="193.888" y1="78.1647" x2="184.15" y2="76.6792" gradientUnits="userSpaceOnUse">
<stop stop-color="#030415"/>
<stop offset="1" stop-color="#4D3FEC"/>
</linearGradient>
<linearGradient id="paint43_linear_1630_6150" x1="176.555" y1="72.4023" x2="171.572" y2="71.6423" gradientUnits="userSpaceOnUse">
<stop offset="0.0001" stop-color="#0C1866"/>
<stop offset="1" stop-color="#9483FF"/>
</linearGradient>
<linearGradient id="paint44_linear_1630_6150" x1="210.961" y1="223.648" x2="183.241" y2="124.606" gradientUnits="userSpaceOnUse">
<stop stop-color="#EEF5F7"/>
<stop offset="1" stop-color="white"/>
</linearGradient>
<linearGradient id="paint45_linear_1630_6150" x1="180.468" y1="161.613" x2="155.328" y2="178.601" gradientUnits="userSpaceOnUse">
<stop stop-color="#B8ADFF"/>
<stop offset="1" stop-color="#EEF5F7"/>
</linearGradient>
<linearGradient id="paint46_linear_1630_6150" x1="192.941" y1="155.485" x2="157.528" y2="189.107" gradientUnits="userSpaceOnUse">
<stop stop-color="#9383FF"/>
<stop offset="1" stop-color="#EEF5F7"/>
</linearGradient>
<linearGradient id="paint47_linear_1630_6150" x1="215.705" y1="180.567" x2="190.788" y2="188.811" gradientUnits="userSpaceOnUse">
<stop stop-color="#08165D"/>
<stop offset="1" stop-color="#9483FF"/>
</linearGradient>
<linearGradient id="paint48_linear_1630_6150" x1="207.801" y1="171.598" x2="185.342" y2="198.187" gradientUnits="userSpaceOnUse">
<stop/>
<stop offset="1" stop-color="#08165D" stop-opacity="0"/>
<stop offset="1" stop-color="#08165D" stop-opacity="0"/>
</linearGradient>
<linearGradient id="paint49_linear_1630_6150" x1="185.596" y1="154.075" x2="227.827" y2="167.245" gradientUnits="userSpaceOnUse">
<stop stop-color="#4D3FEC"/>
<stop offset="1" stop-color="#0D1966"/>
</linearGradient>
<linearGradient id="paint50_linear_1630_6150" x1="186.961" y1="171.178" x2="177.222" y2="169.692" gradientUnits="userSpaceOnUse">
<stop stop-color="#030415"/>
<stop offset="1" stop-color="#4D3FEC"/>
</linearGradient>
<linearGradient id="paint51_linear_1630_6150" x1="169.627" y1="165.415" x2="164.644" y2="164.655" gradientUnits="userSpaceOnUse">
<stop offset="0.0001" stop-color="#0C1866"/>
<stop offset="1" stop-color="#9483FF"/>
</linearGradient>
</defs>
</svg>
